<?xml version="1.0" encoding="iso-8859-1"?>
<!-- Uploaded to: SVG Repo, www.svgrepo.com, Generator: SVG Repo Mixer Tools -->
<svg fill="#dd5858" height="800px" width="800px" version="1.1" id="Layer_1" xmlns="http://www.w3.org/2000/svg" xmlns:xlink="http://www.w3.org/1999/xlink" 
	 viewBox="0 0 511.999 511.999" xml:space="preserve">
<g>
	<g>
		<path d="M256.303,153.161c-25.986,0-47.126,21.141-47.126,47.126c0,25.986,21.14,47.126,47.126,47.126
			c25.986,0,47.128-21.141,47.128-47.126S282.289,153.161,256.303,153.161z M256.303,230.749c-16.796,0-30.462-13.666-30.462-30.462
			s13.666-30.462,30.462-30.462c16.798,0,30.463,13.666,30.463,30.462C286.766,217.085,273.1,230.749,256.303,230.749z"/>
	</g>
</g>
<g>
	<g>
		<path d="M341.728,171.265c-1.48-4.357-6.211-6.689-10.57-5.209c-4.357,1.48-6.689,6.212-5.209,10.57
			c2.58,7.596,3.888,15.558,3.888,23.663c0,40.546-32.987,73.534-73.534,73.534s-73.534-32.987-73.534-73.534
			s32.987-73.534,73.534-73.534c22.066,0,42.774,9.784,56.812,26.843c2.923,3.554,8.173,4.064,11.728,1.14
			c3.553-2.924,4.063-8.175,1.139-11.728c-17.214-20.92-42.612-32.919-69.679-32.919c-49.736,0-90.198,40.463-90.198,90.198
			s40.463,90.198,90.198,90.198s90.198-40.463,90.198-90.198C346.501,190.355,344.895,180.591,341.728,171.265z"/>
	</g>
</g>
<g>
	<g>
		<path d="M256.303,68.231c-72.817,0-132.058,59.24-132.058,132.057s59.24,132.057,132.058,132.057
			c72.817,0,132.057-59.24,132.057-132.057S329.12,68.231,256.303,68.231z M256.303,315.68
			c-63.627,0-115.393-51.765-115.393-115.393S192.675,84.895,256.303,84.895s115.393,51.765,115.393,115.393
			S319.93,315.68,256.303,315.68z"/>
	</g>
</g>
<g>
	<g>
		<path d="M263.492,196.078c-2.059-3.527-6.601-5.077-10.377-3.484c-3.076,1.304-5.145,4.338-5.144,7.699
			c0.002,3.341,2.069,6.407,5.144,7.688c3.352,1.396,7.321,0.387,9.626-2.409C264.933,202.914,265.227,199.051,263.492,196.078z"/>
	</g>
</g>
<g>
	<g>
		<path d="M471.246,24.766H40.754C18.283,24.766,0,43.049,0,65.52v59.227c0,4.602,3.731,8.332,8.332,8.332
			c4.601,0,8.332-3.731,8.332-8.332V65.52c0-13.284,10.807-24.09,24.09-24.09h430.492c13.284,0,24.09,10.807,24.09,24.09v284.411
			h-52.21c-4.602,0-8.332,3.731-8.332,8.332s3.731,8.332,8.332,8.332h52.21v15.273c0,13.284-10.807,24.09-24.09,24.09h-155.41
			H196.164H40.754c-13.284,0-24.09-10.807-24.09-24.09v-15.273h398.688c4.602,0,8.332-3.731,8.332-8.332s-3.731-8.332-8.332-8.332
			H16.664V152.522c0-4.602-3.731-8.332-8.332-8.332c-4.601,0-8.332,3.73-8.332,8.332V381.87c0,22.472,18.283,40.754,40.754,40.754
			H183.54l-20.494,47.945h-40.034c-4.602,0-8.332,3.731-8.332,8.332s3.731,8.332,8.332,8.332h265.975
			c4.602,0,8.332-3.731,8.332-8.332s-3.731-8.332-8.332-8.332h-40.034l-20.494-47.945h142.786c22.472,0,40.754-18.282,40.754-40.754
			V65.52C512,43.049,493.717,24.766,471.246,24.766z M330.83,470.568H181.17l14.238-33.31h121.185L330.83,470.568z"/>
	</g>
</g>
<g>
	<g>
		<path d="M262.924,379.679c-1.914-2.906-5.583-4.299-8.952-3.457c-3.517,0.879-6.116,4.048-6.291,7.67
			c-0.364,7.534,9.106,11.629,14.33,6.172C264.674,387.282,265.089,382.887,262.924,379.679z"/>
	</g>
</g>
</svg>